<?xml version="1.0" encoding="UTF-8"?>
<svg  version="1.1" viewBox="0 0 148.83 52.589" xmlns="http://www.w3.org/2000/svg">
<g transform="translate(4.4463 -41.299)">
<text x="193.38647" y="145.46756" font-family="'Open Sans'" font-size="11.289px" letter-spacing="-1.2303px" stroke-width=".26458" style="line-height:68.55" xml:space="preserve"><tspan font-size="11.289px" stroke-width=".26458"/></text>
<g transform="translate(-36.186 -130.41)">
<g transform="translate(10.241 114.7)" stroke-width="2.065">
<rect x="22.531" y="58.034" width="24.579" height="25.262" fill="#bc9400" fill-opacity=".48235" stroke="#6bff2e"/>
<rect x="22.531" y="58.034" width="24.579" height="25.262" fill="#bc9400" fill-opacity=".48235" stroke="#6bff2e"/>
<rect x="22.531" y="58.034" width="24.579" height="25.262" fill="#bc9400" fill-opacity=".48235" stroke="#6bff2e"/>
<rect x="22.531" y="58.034" width="24.579" height="25.262" fill="#bc9400" fill-opacity=".48235" stroke="#6bff2e"/>
<rect x="22.531" y="58.034" width="24.579" height="25.262" fill="#bc9400" fill-opacity=".48235" stroke="#6bff2e"/>
<rect x="22.531" y="58.034" width="24.579" height="25.262" fill="#bc9400" fill-opacity=".48235" stroke="#6bff2e"/>
<rect x="22.531" y="58.034" width="24.579" height="25.262" fill="#bc9400" fill-opacity=".48235" stroke="#6bff2e"/>
<rect x="22.531" y="58.034" width="24.579" height="25.262" fill="#bc9400" fill-opacity=".48235" stroke="#6bff2e"/>
<rect x="22.531" y="58.034" width="24.579" height="25.262" fill="#bc9400" fill-opacity=".48235" stroke="#6bff2e"/>
<rect x="22.531" y="58.034" width="24.579" height="25.262" fill="#08e8de" stroke="#eef5eb"/>
<rect x="47.11" y="83.297" width="24.579" height="25.262" fill="#08e8de" stroke="#eef5ea"/>
<circle cx="34.821" cy="98.317" r="9.5586" fill="#ff0" fill-opacity=".99412" stroke="#6bff2e"/>
<circle cx="59.4" cy="67.593" r="9.5586" fill="#ff0" fill-opacity=".99608" stroke="#6bff2e"/>
</g>
<text transform="scale(.8753 1.1425)" x="97.404312" y="196.0162" fill="#ffffff" font-family="'Open Sans'" font-size="31.576px" letter-spacing="-1.9664px" stroke-width=".42289" style="line-height:68.55" xml:space="preserve"><tspan x="97.404312" y="196.0162" fill="#ffffff" font-size="31.576px" stroke-width=".42289"><tspan font-family="'Open Sans'" font-weight="bold">F</tspan>ree<tspan font-family="'Open Sans'" font-weight="bold">U</tspan>se</tspan></text>
</g>
</g>
</svg>